<svg width="64" height="64" viewBox="0 0 64 64" fill="none" xmlns="http://www.w3.org/2000/svg">
<rect x="11" y="60" width="5" height="3" fill="white"/>
<rect x="48" y="60" width="5" height="3" fill="white"/>
<rect x="7" y="1" width="50" height="58" fill="white"/>
<path d="M55.74 60.95H8.26C6.65 60.95 5.35 59.64 5.35 58.04V2.91C5.35 1.31 6.65 0 8.26 0H55.74C57.35 0 58.65 1.31 58.65 2.91V58.04C58.65 59.65 57.35 60.95 55.74 60.95ZM8.26 1.94C7.72 1.94 7.29 2.38 7.29 2.91V58.04C7.29 58.58 7.73 59.01 8.26 59.01H55.74C56.28 59.01 56.71 58.57 56.71 58.04V2.91C56.71 2.37 56.27 1.94 55.74 1.94H8.26Z" fill="black"/>
<path d="M55.74 60.95H8.26C6.65 60.95 5.35 59.64 5.35 58.04V2.91C5.35 1.31 6.65 0 8.26 0H55.74C57.35 0 58.65 1.31 58.65 2.91V58.04C58.65 59.65 57.35 60.95 55.74 60.95ZM8.26 1.94C7.72 1.94 7.29 2.38 7.29 2.91V58.04C7.29 58.58 7.73 59.01 8.26 59.01H55.74C56.28 59.01 56.71 58.57 56.71 58.04V2.91C56.71 2.37 56.27 1.94 55.74 1.94H8.26Z" fill="black" fill-opacity="0.2"/>
<path d="M32 53.82C22.71 53.82 15.15 46.26 15.15 36.97C15.15 27.68 22.71 20.13 32 20.13C41.29 20.13 48.85 27.69 48.85 36.98C48.85 46.27 41.29 53.82 32 53.82ZM32 22.07C23.78 22.07 17.09 28.76 17.09 36.98C17.09 45.2 23.78 51.88 32 51.88C40.22 51.88 46.91 45.19 46.91 36.97C46.91 28.75 40.22 22.07 32 22.07Z" fill="black"/>
<path d="M32 49.36C25.17 49.36 19.62 43.8 19.62 36.98C19.62 30.15 25.18 24.6 32 24.6C38.83 24.6 44.38 30.16 44.38 36.98C44.38 43.8 38.83 49.36 32 49.36ZM32 26.53C26.24 26.53 21.56 31.22 21.56 36.97C21.56 42.73 26.25 47.41 32 47.41C37.76 47.41 42.44 42.72 42.44 36.97C42.44 31.21 37.76 26.53 32 26.53ZM57.68 14.61H6.32C5.78 14.61 5.35 14.18 5.35 13.64C5.35 13.1 5.78 12.67 6.32 12.67H57.68C58.22 12.67 58.65 13.1 58.65 13.64C58.65 14.18 58.22 14.61 57.68 14.61Z" fill="black"/>
<path d="M22.59 14.61C22.05 14.61 21.62 14.18 21.62 13.64V0.97C21.62 0.43 22.05 0 22.59 0C23.13 0 23.56 0.43 23.56 0.97V13.64C23.56 14.18 23.12 14.61 22.59 14.61ZM41.54 10.16H27.18C26.64 10.16 26.21 9.73 26.21 9.19V5.42C26.21 4.88 26.64 4.45 27.18 4.45H41.54C42.08 4.45 42.51 4.88 42.51 5.42V9.18C42.51 9.72 42.08 10.16 41.54 10.16ZM28.15 8.22H40.57V6.39H28.15V8.22ZM47.63 6.39H46.64C46.1 6.39 45.67 5.96 45.67 5.42C45.67 4.88 46.1 4.45 46.64 4.45H47.63C48.17 4.45 48.6 4.88 48.6 5.42C48.6 5.96 48.16 6.39 47.63 6.39ZM52.47 6.39H51.48C50.94 6.39 50.51 5.96 50.51 5.42C50.51 4.88 50.94 4.45 51.48 4.45H52.47C53.01 4.45 53.44 4.88 53.44 5.42C53.44 5.96 53.01 6.39 52.47 6.39ZM47.63 10.16H46.64C46.1 10.16 45.67 9.73 45.67 9.19C45.67 8.65 46.1 8.22 46.64 8.22H47.63C48.17 8.22 48.6 8.65 48.6 9.19C48.6 9.72 48.16 10.16 47.63 10.16ZM52.47 10.16H51.48C50.94 10.16 50.51 9.73 50.51 9.19C50.51 8.65 50.94 8.22 51.48 8.22H52.47C53.01 8.22 53.44 8.65 53.44 9.19C53.44 9.72 53.01 10.16 52.47 10.16Z" fill="black"/>
<path d="M14.76 11.19C12.62 11.19 10.88 9.44999 10.88 7.30999C10.88 5.16999 12.62 3.42999 14.76 3.42999C16.9 3.42999 18.64 5.16999 18.64 7.30999C18.64 9.44999 16.9 11.19 14.76 11.19ZM14.76 5.35999C13.69 5.35999 12.82 6.22999 12.82 7.29999C12.82 8.36999 13.69 9.23999 14.76 9.23999C15.83 9.23999 16.7 8.36999 16.7 7.29999C16.7 6.22999 15.83 5.35999 14.76 5.35999Z" fill="black"/>
<path d="M47.06 32.92C46.81 32.92 46.56 32.83 46.38 32.64C46 32.26 46 31.65 46.38 31.27L48.77 28.88C46.92 25.29 44 22.38 40.09 20.23L37.71 22.62C37.33 23 36.72 23 36.34 22.62C35.96 22.24 35.96 21.63 36.34 21.25L39.23 18.35C39.53 18.05 39.99 17.98 40.36 18.17C45.19 20.67 48.71 24.2 50.82 28.66C51 29.03 50.92 29.47 50.63 29.76L47.75 32.65C47.56 32.83 47.31 32.92 47.06 32.92Z" fill="black"/>
<path d="M39.81 38.2C36.83 38.2 34.21 37.71 31.83 37.27C27.76 36.51 24.55 35.91 21.06 37.83C20.59 38.09 20 37.92 19.74 37.45C19.48 36.98 19.65 36.39 20.12 36.13C24.22 33.88 28.09 34.6 32.18 35.36C35.37 35.96 38.98 36.63 43.28 36.02C43.81 35.94 44.3 36.31 44.38 36.84C44.46 37.37 44.09 37.86 43.56 37.94C42.24 38.12 40.99 38.2 39.81 38.2Z" fill="black"/>
<path d="M16.81 64H10.59C10.05 64 9.62 63.57 9.62 63.03V59.98C9.62 59.44 10.05 59.01 10.59 59.01C11.13 59.01 11.56 59.44 11.56 59.98V62.06H15.84V59.98C15.84 59.44 16.27 59.01 16.81 59.01C17.35 59.01 17.78 59.44 17.78 59.98V63.03C17.78 63.57 17.35 64 16.81 64ZM53.41 64H47.19C46.65 64 46.22 63.57 46.22 63.03V59.98C46.22 59.44 46.65 59.01 47.19 59.01C47.73 59.01 48.16 59.44 48.16 59.98V62.06H52.44V59.98C52.44 59.44 52.87 59.01 53.41 59.01C53.95 59.01 54.38 59.44 54.38 59.98V63.03C54.38 63.57 53.95 64 53.41 64Z" fill="black"/>
</svg>
